<svg width="179" height="55" viewBox="0 0 179 55" fill="none" xmlns="http://www.w3.org/2000/svg">
<path d="M61.7784 19.7484H64.1339C64.2827 21.1672 65.2777 22.5904 67.6374 22.5904C69.7633 22.5904 71.0388 21.3644 71.0388 19.7484C71.0388 15.1403 61.8762 18.0809 61.8762 11.7325C61.8762 8.91188 64.1339 7.01721 67.4928 7.01721C70.7242 7.01721 72.8416 8.809 73.1052 11.4067H70.6774C70.5286 10.2536 69.4614 8.95475 67.395 8.92903C65.571 8.88187 64.1339 9.83778 64.1339 11.6767C64.1339 16.0876 73.2795 13.3442 73.2795 19.6669C73.2795 22.0931 71.3067 24.4936 67.6374 24.4936C64.2317 24.4636 61.8252 22.5432 61.7784 19.7484Z" fill="#666666"/>
<path d="M79.232 7.47156V10.8537H82.7099V12.6926H79.232V20.6056C79.232 21.9259 79.7167 22.3931 81.0815 22.3931H82.7099V24.2792H80.7158C78.3561 24.2792 77.021 23.3019 77.021 20.6056V12.6926H75.2948V10.8537H77.021V7.47156H79.232Z" fill="#666666"/>
<path d="M90.8776 10.6309C93.3564 10.6309 95.0571 11.9168 95.8352 13.3057V10.8538H98.0716V24.2836H95.8352V21.7845C95.0358 23.2334 93.3096 24.5065 90.8521 24.5065C87.3018 24.5065 84.5552 21.686 84.5552 17.5194C84.5552 13.3528 87.3018 10.6309 90.8776 10.6309ZM91.3028 12.5684C88.8707 12.5684 86.8044 14.3559 86.8044 17.5194C86.8044 20.6829 88.8707 22.5433 91.3028 22.5433C93.7348 22.5433 95.8224 20.7086 95.8224 17.5451C95.8224 14.3816 93.7475 12.5684 91.3155 12.5684H91.3028Z" fill="#666666"/>
<path d="M104.028 24.2836H101.817V10.8537H104.028V13.0356C104.781 11.5396 106.218 10.6094 108.331 10.6094V12.9113H107.749C105.623 12.9113 104.028 13.8672 104.028 16.9792V24.2836Z" fill="#666666"/>
<path d="M116.401 10.6307C117.376 10.6154 118.339 10.8477 119.202 11.3061C120.065 11.7646 120.799 12.4345 121.337 13.2541V6.14697H123.574V24.2835H121.337V21.7587C120.534 23.2547 118.808 24.5064 116.376 24.5064C112.804 24.5064 110.057 21.6858 110.057 17.5193C110.057 13.3527 112.804 10.6307 116.401 10.6307ZM116.826 12.5683C114.398 12.5683 112.328 14.3558 112.328 17.5193C112.328 20.6828 114.373 22.5431 116.813 22.5431C119.254 22.5431 121.337 20.7085 121.337 17.545C121.337 14.3815 119.245 12.5683 116.813 12.5683H116.826Z" fill="#666666"/>
<path d="M136.907 24.2834V22.3201C136.437 23.0119 135.8 23.5717 135.057 23.9466C134.313 24.3216 133.486 24.4995 132.656 24.4634C129.594 24.4634 127.183 22.5516 127.183 18.7022V10.8535H129.373V18.4279C129.373 21.1456 130.857 22.543 133.093 22.543C135.33 22.543 136.92 21.1242 136.92 18.2307V10.8535H139.131V24.2834H136.907Z" fill="#666666"/>
<path d="M142.146 20.34H144.429C144.552 21.6259 145.704 22.6204 147.567 22.6204C149.318 22.6204 150.288 21.7374 150.288 20.6315C150.288 17.6308 142.413 19.3841 142.413 14.3816C142.413 12.3241 144.331 10.6309 147.299 10.6309C150.267 10.6309 152.184 12.2255 152.333 14.8489H150.118C150.02 13.4986 148.999 12.5212 147.226 12.5212C145.598 12.5212 144.624 13.3057 144.624 14.3816C144.624 17.5708 152.354 15.8305 152.452 20.6315C152.452 22.839 150.534 24.4894 147.592 24.4894C144.48 24.5065 142.29 22.7919 142.146 20.34Z" fill="#666666"/>
<path d="M158.26 7.47156V10.8537H161.738V12.6926H158.26V20.6056C158.26 21.9259 158.749 22.3931 160.109 22.3931H161.738V24.2792H159.744C157.388 24.2792 156.049 23.3019 156.049 20.6056V12.6926H154.34V10.8537H156.04V7.47156H158.26Z" fill="#666666"/>
<path d="M69.8993 31.3566C73.5686 31.3566 76.4853 33.2212 77.7523 36.5305H75.0992C74.1766 34.4686 72.3781 33.3198 69.8993 33.3198C66.349 33.3198 63.7002 35.9175 63.7002 40.1098C63.7002 44.302 66.349 46.874 69.8993 46.874C72.3781 46.874 74.1766 45.7209 75.0992 43.6848H77.7523C76.4768 46.9726 73.5686 48.8287 69.8993 48.8287C65.1585 48.8287 61.4382 45.2494 61.4382 40.1269C61.4382 35.0044 65.1585 31.3566 69.8993 31.3566Z" fill="#666666"/>
<path d="M80.2056 41.9229C80.2056 37.6792 83.1818 35.0087 86.9404 35.0087C90.699 35.0087 93.6752 37.6792 93.6752 41.9229C93.6752 46.1666 90.6352 48.8972 86.8426 48.8972C83.05 48.8972 80.2056 46.1881 80.2056 41.9229ZM91.4133 41.9229C91.4133 38.5408 89.1981 36.9462 86.9149 36.9462C84.6317 36.9462 82.4845 38.5408 82.4845 41.9229C82.4845 45.305 84.5509 46.9211 86.8639 46.9211C89.1768 46.9211 91.4133 45.3308 91.4133 41.9229Z" fill="#666666"/>
<path d="M98.8029 30.5248V48.6613H96.5878V30.5248H98.8029Z" fill="#666666"/>
<path d="M104.781 30.5248V48.6613H102.57V30.5248H104.781Z" fill="#666666"/>
<path d="M114.309 48.8969C110.517 48.8969 107.723 46.2006 107.723 41.9355C107.723 37.6703 110.423 35.0212 114.309 35.0212C118.195 35.0212 120.687 37.7689 120.687 41.4511C120.689 41.9022 120.665 42.3531 120.615 42.8014H109.985C110.155 45.5234 112.051 47.0151 114.309 47.0151C116.303 47.0151 117.57 45.9863 118.055 44.5417H120.436C119.756 46.9722 117.617 48.8969 114.309 48.8969ZM110.006 40.9667H118.421C118.442 38.3433 116.499 36.8945 114.216 36.8945C112.051 36.8945 110.249 38.3433 110.006 40.9667Z" fill="#666666"/>
<path d="M129.284 35.0087C132.592 35.0087 134.756 36.7233 135.436 39.5439H133.055C132.592 37.9278 131.257 36.8948 129.284 36.8948C126.856 36.8948 125.053 38.6394 125.053 41.9229C125.053 45.2064 126.856 46.9939 129.284 46.9939C131.257 46.9939 132.566 46.038 133.055 44.3491H135.436C134.756 47.0197 132.592 48.8843 129.284 48.8843C125.491 48.8843 122.796 46.1881 122.796 41.9229C122.796 37.6578 125.491 35.0087 129.284 35.0087Z" fill="#666666"/>
<path d="M141.074 31.8494V35.2315H144.561V37.0704H141.074V44.9877C141.074 46.308 141.563 46.7752 142.924 46.7752H144.561V48.6613H142.567C140.211 48.6613 138.872 47.684 138.872 44.9877V37.0704H137.146V35.2315H138.872V31.8494H141.074Z" fill="#666666"/>
<path d="M146.861 31.5278C146.863 31.2344 146.952 30.9481 147.114 30.7048C147.277 30.4615 147.507 30.2718 147.776 30.1594C148.045 30.047 148.341 30.0168 148.627 30.0726C148.912 30.1283 149.176 30.2676 149.383 30.4731C149.591 30.6786 149.735 30.9411 149.796 31.2281C149.857 31.5151 149.832 31.8138 149.726 32.0871C149.62 32.3603 149.436 32.5961 149.198 32.7649C148.96 32.9338 148.678 33.0283 148.387 33.0367C148.188 33.0425 147.989 33.0076 147.803 32.9342C147.617 32.8608 147.448 32.7504 147.306 32.6095C147.163 32.4686 147.05 32.3002 146.974 32.1144C146.897 31.9285 146.859 31.729 146.861 31.5278ZM149.437 35.2314V48.6613H147.226V35.2314H149.437Z" fill="#666666"/>
<path d="M158.166 46.6037L162.299 35.2314H164.659L159.442 48.6613H156.865L151.627 35.2314H154.008L158.166 46.6037Z" fill="#666666"/>
<path d="M172.622 48.8972C168.83 48.8972 166.032 46.2009 166.032 41.9358C166.032 37.6706 168.715 35.0087 172.622 35.0087C176.53 35.0087 179 37.7564 179 41.4385C179 41.8896 178.976 42.3404 178.928 42.7888H168.277C168.447 45.5108 170.343 47.0025 172.605 47.0025C174.599 47.0025 175.862 45.9737 176.351 44.5292H178.732C178.052 46.9725 175.913 48.8972 172.622 48.8972ZM168.303 40.967H176.717C176.738 38.3436 174.795 36.8948 172.508 36.8948C170.343 36.8948 168.545 38.3436 168.303 40.967Z" fill="#666666"/>
<path d="M51.9058 32.5223C51.9058 32.1899 51.971 31.8607 52.0977 31.5538C52.2244 31.2469 52.4101 30.9682 52.644 30.734C52.878 30.4997 53.1556 30.3144 53.4609 30.1887C53.7662 30.0631 54.0931 29.9996 54.4229 30.0018C53.7609 30.0018 53.1261 29.7367 52.6581 29.2648C52.19 28.7929 51.9271 28.1529 51.9271 27.4856C51.9259 28.1533 51.662 28.7933 51.1933 29.2651C50.7246 29.7369 50.0893 30.0018 49.427 30.0018C50.086 30.0086 50.7158 30.277 51.1799 30.7488C51.6439 31.2207 51.9047 31.8579 51.9058 32.5223Z" fill="#666666"/>
<path d="M50.3155 26.9367C50.3155 26.402 50.5259 25.8891 50.9005 25.5106C51.2752 25.1321 51.7834 24.9189 52.3138 24.9178C51.7838 24.9178 51.2755 24.7055 50.9008 24.3277C50.526 23.9499 50.3155 23.4374 50.3155 22.9031C50.316 23.1678 50.2647 23.43 50.1645 23.6747C50.0643 23.9194 49.9171 24.1417 49.7314 24.3289C49.5457 24.5161 49.3252 24.6645 49.0825 24.7656C48.8398 24.8666 48.5797 24.9183 48.3171 24.9178C48.5799 24.9178 48.8401 24.97 49.0828 25.0715C49.3256 25.1731 49.5461 25.3218 49.7317 25.5094C49.9173 25.6969 50.0644 25.9195 50.1646 26.1644C50.2648 26.4094 50.316 26.6718 50.3155 26.9367Z" fill="#666666"/>
<path d="M47.4839 21.9343C47.4839 21.7358 47.5228 21.5392 47.5982 21.3559C47.6737 21.1725 47.7843 21.006 47.9238 20.8658C48.0632 20.7256 48.2287 20.6146 48.4107 20.539C48.5928 20.4634 48.7879 20.4248 48.9848 20.4254C48.5867 20.4254 48.205 20.266 47.9235 19.9822C47.642 19.6984 47.4839 19.3135 47.4839 18.9122C47.4839 19.1109 47.4451 19.3077 47.3697 19.4913C47.2942 19.6749 47.1837 19.8417 47.0443 19.9822C46.9049 20.1227 46.7395 20.2342 46.5574 20.3102C46.3753 20.3863 46.1801 20.4254 45.983 20.4254C46.1799 20.4248 46.375 20.4634 46.5571 20.539C46.7391 20.6146 46.9046 20.7256 47.0441 20.8658C47.1835 21.006 47.2941 21.1725 47.3696 21.3559C47.4451 21.5392 47.4839 21.7358 47.4839 21.9343Z" fill="#666666"/>
<path d="M43.5765 17.8494C43.5765 17.5886 43.679 17.3385 43.8615 17.1538C44.0439 16.969 44.2916 16.8646 44.5502 16.8635C44.2916 16.8623 44.0439 16.758 43.8615 16.5732C43.679 16.3884 43.5765 16.1383 43.5765 15.8776C43.5765 16.139 43.4735 16.3898 43.2901 16.5747C43.1067 16.7596 42.858 16.8635 42.5986 16.8635C42.858 16.8635 43.1067 16.9673 43.2901 17.1522C43.4735 17.3371 43.5765 17.5879 43.5765 17.8494Z" fill="#666666"/>
<path d="M38.8655 14.9259C38.8667 14.7955 38.9185 14.6707 39.01 14.5785C39.1014 14.4863 39.2252 14.434 39.3545 14.4329C39.2248 14.4329 39.1004 14.381 39.0088 14.2885C38.9171 14.1961 38.8655 14.0707 38.8655 13.9399C38.8661 14.0048 38.8538 14.0692 38.8295 14.1293C38.8051 14.1893 38.7691 14.2439 38.7236 14.2898C38.6781 14.3357 38.6239 14.372 38.5644 14.3965C38.5048 14.4211 38.441 14.4335 38.3766 14.4329C38.5063 14.4329 38.6306 14.4848 38.7223 14.5773C38.814 14.6697 38.8655 14.7951 38.8655 14.9259Z" fill="#666666"/>
<path d="M2.50005 22.3844C2.49668 23.0506 2.23179 23.6885 1.76331 24.1584C1.29482 24.6283 0.66085 24.8921 0 24.892C0.32811 24.8915 0.65311 24.9562 0.956405 25.0824C1.2597 25.2086 1.53534 25.3938 1.76754 25.6275C1.99975 25.8612 2.18397 26.1388 2.30966 26.4444C2.43535 26.7499 2.50005 27.0775 2.50005 27.4083C2.50005 27.0778 2.5646 26.7506 2.69003 26.4454C2.81545 26.1401 2.99929 25.8627 3.23105 25.629C3.46281 25.3954 3.73794 25.21 4.04074 25.0836C4.34355 24.9571 4.66809 24.892 4.99584 24.892C4.33573 24.8909 3.70285 24.6266 3.23528 24.1568C2.76771 23.6871 2.50341 23.0499 2.50005 22.3844Z" fill="#666666"/>
<path d="M4.08598 27.97C4.08654 28.2349 4.03527 28.4973 3.93509 28.7423C3.83492 28.9872 3.68781 29.2098 3.50219 29.3973C3.31657 29.5849 3.09609 29.7337 2.85336 29.8352C2.61063 29.9367 2.35043 29.9889 2.08765 29.9889C2.35023 29.9884 2.61034 30.0401 2.85304 30.1412C3.09574 30.2422 3.31626 30.3906 3.50193 30.5778C3.68761 30.765 3.83478 30.9873 3.93501 31.232C4.03524 31.4767 4.08654 31.7389 4.08598 32.0036C4.08598 31.4693 4.29652 30.9569 4.67128 30.579C5.04604 30.2012 5.55433 29.9889 6.08432 29.9889C5.55394 29.9878 5.04566 29.7746 4.67102 29.3961C4.29639 29.0176 4.08598 28.5047 4.08598 27.97Z" fill="#666666"/>
<path d="M6.91765 32.9724C6.91765 33.3726 6.75997 33.7564 6.4793 34.0393C6.19862 34.3223 5.81795 34.4813 5.42102 34.4813C5.81834 34.4824 6.199 34.6423 6.47955 34.926C6.7601 35.2096 6.91765 35.5939 6.91765 35.9945C6.91765 35.5931 7.07578 35.2083 7.35724 34.9245C7.63871 34.6407 8.02047 34.4813 8.41853 34.4813C8.22163 34.4819 8.02656 34.4432 7.84449 34.3677C7.66242 34.2921 7.49693 34.181 7.3575 34.0409C7.21808 33.9007 7.10745 33.7342 7.03198 33.5508C6.9565 33.3675 6.91765 33.1709 6.91765 32.9724Z" fill="#666666"/>
<path d="M10.8294 37.0574C10.8294 37.3189 10.7263 37.5696 10.5429 37.7545C10.3595 37.9394 10.1108 38.0433 9.85144 38.0433C10.1108 38.0433 10.3595 38.1472 10.5429 38.3321C10.7263 38.5169 10.8294 38.7677 10.8294 39.0292C10.8288 38.8999 10.8536 38.7718 10.9022 38.6522C10.9509 38.5326 11.0226 38.4239 11.113 38.3323C11.2035 38.2407 11.311 38.168 11.4294 38.1184C11.5478 38.0688 11.6748 38.0433 11.803 38.0433C11.6748 38.0433 11.5478 38.0178 11.4294 37.9682C11.311 37.9186 11.2035 37.8459 11.113 37.7543C11.0226 37.6627 10.9509 37.5539 10.9022 37.4343C10.8536 37.3148 10.8288 37.1866 10.8294 37.0574Z" fill="#666666"/>
<path d="M15.536 39.9808C15.536 40.1116 15.4844 40.237 15.3927 40.3294C15.301 40.4219 15.1767 40.4738 15.047 40.4738C15.1114 40.4732 15.1752 40.4856 15.2348 40.5102C15.2944 40.5347 15.3485 40.571 15.394 40.6169C15.4395 40.6628 15.4755 40.7174 15.4999 40.7774C15.5243 40.8375 15.5365 40.9019 15.536 40.9667C15.5354 40.9019 15.5476 40.8375 15.572 40.7774C15.5964 40.7174 15.6324 40.6628 15.6779 40.6169C15.7234 40.571 15.7775 40.5347 15.8371 40.5102C15.8967 40.4856 15.9605 40.4732 16.0249 40.4738C15.8952 40.4738 15.7709 40.4219 15.6792 40.3294C15.5875 40.237 15.536 40.1116 15.536 39.9808Z" fill="#666666"/>
<path d="M32.2285 2.51622C31.5666 2.51622 30.9318 2.25112 30.4637 1.77924C29.9957 1.30735 29.7327 0.667344 29.7327 0C29.7316 0.667738 29.4677 1.30774 28.999 1.7795C28.5302 2.25126 27.895 2.51622 27.2327 2.51622C27.8957 2.51622 28.5316 2.78178 29.0005 3.25446C29.4693 3.72715 29.7327 4.36825 29.7327 5.03673C29.7322 4.70594 29.7963 4.37827 29.9215 4.0725C30.0466 3.76672 30.2304 3.48883 30.4622 3.25472C30.694 3.02061 30.9693 2.83489 31.2724 2.70817C31.5755 2.58145 31.9004 2.51622 32.2285 2.51622Z" fill="#666666"/>
<path d="M26.6884 4.11931C26.1584 4.11931 25.6502 3.90705 25.2754 3.52922C24.9006 3.15139 24.6901 2.63894 24.6901 2.10461C24.689 2.63934 24.4775 3.15177 24.102 3.52948C23.7266 3.90718 23.2179 4.11931 22.6875 4.11931C22.9503 4.11874 23.2106 4.17044 23.4535 4.27143C23.6965 4.37243 23.9173 4.52074 24.1033 4.70788C24.2893 4.89502 24.4369 5.11731 24.5376 5.36202C24.6383 5.60673 24.6901 5.86907 24.6901 6.134C24.6895 5.86927 24.7408 5.60703 24.8411 5.36234C24.9413 5.11765 25.0885 4.89533 25.2741 4.70814C25.4598 4.52094 25.6803 4.37256 25.923 4.27152C26.1657 4.17047 26.4258 4.11874 26.6884 4.11931Z" fill="#666666"/>
<path d="M21.7266 6.9741C21.3293 6.97297 20.9486 6.81304 20.6681 6.52939C20.3875 6.24574 20.23 5.86151 20.23 5.46094C20.23 5.86225 20.0719 6.24713 19.7904 6.5309C19.5089 6.81468 19.1272 6.9741 18.7291 6.9741C19.1272 6.9741 19.5089 7.13352 19.7904 7.4173C20.0719 7.70107 20.23 8.08595 20.23 8.48726C20.23 8.08669 20.3875 7.70246 20.6681 7.41881C20.9486 7.13516 21.3293 6.97524 21.7266 6.9741Z" fill="#666666"/>
<path d="M17.6746 10.9136C17.416 10.9136 17.1679 10.8104 16.9846 10.6264C16.8014 10.4424 16.6978 10.1927 16.6967 9.93201C16.6956 10.1905 16.5939 10.4383 16.4133 10.6219C16.2328 10.8055 15.988 10.9103 15.7316 10.9136C15.9902 10.9148 16.2378 11.0191 16.4203 11.2039C16.6028 11.3887 16.7052 11.6388 16.7052 11.8995C16.7052 11.6395 16.8071 11.3901 16.9886 11.2054C17.1702 11.0208 17.4168 10.9159 17.6746 10.9136Z" fill="#666666"/>
<path d="M14.7749 15.6631C14.6456 15.662 14.5219 15.6097 14.4304 15.5175C14.339 15.4253 14.2871 15.3006 14.286 15.1702C14.286 15.3002 14.235 15.4249 14.1443 15.5172C14.0535 15.6096 13.9302 15.662 13.8013 15.6631C13.8649 15.6631 13.928 15.6758 13.9868 15.7003C14.0456 15.7249 14.099 15.7609 14.144 15.8063C14.189 15.8516 14.2247 15.9055 14.2491 15.9648C14.2734 16.0241 14.286 16.0876 14.286 16.1518C14.2871 16.0218 14.3391 15.8975 14.4307 15.806C14.5223 15.7145 14.646 15.6631 14.7749 15.6631Z" fill="#666666"/>
<path d="M22.1731 52.3262C22.8339 52.3296 23.4666 52.5966 23.9327 53.0689C24.3987 53.5412 24.6604 54.1804 24.6604 54.8467C24.6598 54.5148 24.7244 54.1861 24.8504 53.8795C24.9763 53.5728 25.1612 53.2944 25.3944 53.0601C25.6275 52.8258 25.9044 52.6404 26.2089 52.5144C26.5135 52.3884 26.8398 52.3245 27.1689 52.3262C26.8401 52.3279 26.5142 52.264 26.2099 52.1383C25.9056 52.0126 25.629 51.8276 25.3959 51.5937C25.1628 51.3599 24.9778 51.082 24.8516 50.7758C24.7254 50.4697 24.6604 50.1415 24.6604 49.8099C24.6604 50.4758 24.3986 51.1145 23.9324 51.5861C23.4662 52.0578 22.8335 52.3239 22.1731 52.3262Z" fill="#666666"/>
<path d="M27.7174 50.7275C28.2474 50.7275 28.7557 50.9397 29.1304 51.3175C29.5052 51.6954 29.7157 52.2078 29.7157 52.7422C29.7152 52.4774 29.7665 52.2152 29.8667 51.9705C29.9669 51.7258 30.1141 51.5035 30.2998 51.3163C30.4855 51.1291 30.706 50.9807 30.9487 50.8797C31.1914 50.7786 31.4515 50.7269 31.7141 50.7275C31.1841 50.7275 30.6758 50.5152 30.301 50.1374C29.9263 49.7595 29.7157 49.2471 29.7157 48.7128C29.7146 49.2467 29.5037 49.7585 29.1292 50.1361C28.7547 50.5137 28.2471 50.7263 27.7174 50.7275Z" fill="#666666"/>
<path d="M32.675 47.8724C32.8719 47.8719 33.067 47.9105 33.2491 47.986C33.4312 48.0616 33.5966 48.1727 33.7361 48.3128C33.8755 48.453 33.9861 48.6195 34.0616 48.8029C34.1371 48.9862 34.1759 49.1828 34.1759 49.3813C34.1754 49.183 34.2137 48.9865 34.2887 48.8032C34.3637 48.6199 34.4739 48.4533 34.613 48.3131C34.7521 48.1729 34.9173 48.0617 35.0992 47.9861C35.281 47.9105 35.4759 47.8718 35.6726 47.8724C35.4757 47.8724 35.2807 47.8332 35.0988 47.7571C34.917 47.6811 34.7518 47.5695 34.6128 47.429C34.4737 47.2884 34.3636 47.1215 34.2886 46.938C34.2137 46.7544 34.1754 46.5578 34.1759 46.3593C34.1759 46.7606 34.0178 47.1454 33.7363 47.4292C33.4549 47.713 33.0731 47.8724 32.675 47.8724Z" fill="#666666"/>
<path d="M36.7311 43.9288C36.9897 43.9299 37.2373 44.0343 37.4198 44.219C37.6023 44.4038 37.7047 44.6539 37.7047 44.9147C37.7047 44.6532 37.8078 44.4024 37.9912 44.2175C38.1746 44.0326 38.4233 43.9288 38.6826 43.9288C38.5544 43.9293 38.4274 43.9044 38.3087 43.8553C38.1901 43.8062 38.0823 43.734 37.9914 43.6428C37.9006 43.5516 37.8285 43.4432 37.7793 43.3238C37.7301 43.2044 37.7047 43.0764 37.7047 42.9471C37.7047 43.2075 37.6022 43.4572 37.4196 43.6413C37.237 43.8253 36.9893 43.9288 36.7311 43.9288Z" fill="#666666"/>
<path d="M39.6266 39.1835C39.691 39.1829 39.7548 39.1953 39.8144 39.2199C39.874 39.2444 39.9281 39.2807 39.9736 39.3266C40.0191 39.3725 40.0551 39.4271 40.0795 39.4871C40.1038 39.5472 40.1161 39.6116 40.1155 39.6765C40.115 39.6116 40.1272 39.5472 40.1516 39.4871C40.176 39.4271 40.212 39.3725 40.2575 39.3266C40.303 39.2807 40.3571 39.2444 40.4167 39.2199C40.4763 39.1953 40.5401 39.1829 40.6045 39.1835C40.5401 39.1841 40.4763 39.1717 40.4167 39.1471C40.3571 39.1226 40.303 39.0863 40.2575 39.0404C40.212 38.9945 40.176 38.9399 40.1516 38.8799C40.1272 38.8198 40.115 38.7554 40.1155 38.6906C40.1161 38.7554 40.1038 38.8198 40.0795 38.8799C40.0551 38.9399 40.0191 38.9945 39.9736 39.0404C39.9281 39.0863 39.874 39.1226 39.8144 39.1471C39.7548 39.1717 39.691 39.1841 39.6266 39.1835Z" fill="#666666"/>
<path d="M48.9933 11.6379C48.6652 11.6379 48.3403 11.5727 48.0372 11.446C47.7341 11.3193 47.4588 11.1335 47.227 10.8994C46.9952 10.6653 46.8114 10.3874 46.6862 10.0817C46.5611 9.77589 46.4969 9.44823 46.4975 9.11743C46.4975 9.44843 46.4328 9.77619 46.3072 10.082C46.1815 10.3878 45.9974 10.6656 45.7652 10.8997C45.5331 11.1338 45.2575 11.3194 44.9542 11.4461C44.6508 11.5727 44.3257 11.6379 43.9974 11.6379C44.3273 11.6374 44.6541 11.7027 44.9588 11.8303C45.2635 11.9578 45.5401 12.145 45.7725 12.381C46.005 12.6169 46.1888 12.8971 46.3132 13.2051C46.4377 13.5131 46.5003 13.843 46.4975 14.1756C46.4947 13.8434 46.5572 13.5139 46.6813 13.2061C46.8055 12.8983 46.9889 12.6184 47.2209 12.3825C47.453 12.1466 47.729 11.9593 48.0332 11.8315C48.3374 11.7037 48.6637 11.6379 48.9933 11.6379Z" fill="#666666"/>
<path d="M43.7934 9.17326C43.2634 9.17326 42.7552 8.961 42.3804 8.58317C42.0056 8.20535 41.7951 7.6929 41.7951 7.15857C41.7957 7.4233 41.7443 7.68554 41.6441 7.93023C41.5439 8.17492 41.3967 8.39724 41.211 8.58443C41.0254 8.77163 40.8048 8.92001 40.5621 9.02105C40.3194 9.1221 40.0593 9.17383 39.7968 9.17326C40.3267 9.17326 40.835 9.38552 41.2098 9.76335C41.5846 10.1412 41.7951 10.6536 41.7951 11.188C41.7962 10.654 42.0071 10.1422 42.3816 9.7646C42.7562 9.38702 43.2638 9.1744 43.7934 9.17326Z" fill="#666666"/>
<path d="M38.1513 8.01573C37.7533 8.01573 37.3715 7.8563 37.09 7.57253C36.8086 7.28876 36.6504 6.90388 36.6504 6.50256C36.651 6.70107 36.6127 6.89774 36.5377 7.0813C36.4628 7.26486 36.3526 7.43171 36.2136 7.57227C36.0746 7.71284 35.9094 7.82437 35.7275 7.90046C35.5457 7.97656 35.3507 8.01573 35.1538 8.01573C35.5507 8.01573 35.9314 8.1747 36.2121 8.45767C36.4928 8.74063 36.6504 9.12442 36.6504 9.5246C36.6516 9.12403 36.8102 8.74025 37.0915 8.4574C37.3729 8.17456 37.754 8.01573 38.1513 8.01573Z" fill="#666666"/>
<path d="M32.3688 8.28162C32.1127 8.28279 31.8665 8.18222 31.6835 8.0017C31.5005 7.82118 31.3953 7.57524 31.3909 7.31714C31.3909 7.44641 31.3655 7.57441 31.3164 7.69378C31.2672 7.81316 31.1951 7.92157 31.1042 8.01277C31.0133 8.10398 30.9055 8.1762 30.7869 8.22528C30.6683 8.27436 30.5412 8.29933 30.413 8.29877C30.6723 8.29877 30.9211 8.40264 31.1045 8.58753C31.2878 8.77243 31.3909 9.0232 31.3909 9.28468C31.3886 9.15377 31.4122 9.02372 31.4604 8.90212C31.5085 8.78052 31.5802 8.6698 31.6712 8.57642C31.7622 8.48305 31.8708 8.40889 31.9906 8.35827C32.1103 8.30766 32.2389 8.2816 32.3688 8.28162Z" fill="#666666"/>
<path d="M26.8457 9.92326C26.7171 9.92102 26.5945 9.86824 26.5039 9.77615C26.4134 9.68406 26.3621 9.55996 26.361 9.4303C26.361 9.56104 26.3095 9.68642 26.2178 9.77887C26.1261 9.87132 26.0017 9.92326 25.8721 9.92326C25.9361 9.92269 25.9996 9.93491 26.0589 9.95921C26.1182 9.98352 26.1721 10.0194 26.2176 10.0649C26.263 10.1103 26.2991 10.1644 26.3237 10.2239C26.3484 10.2835 26.361 10.3474 26.361 10.4119C26.3621 10.2827 26.4136 10.159 26.5042 10.0676C26.5949 9.97622 26.7175 9.92437 26.8457 9.92326Z" fill="#666666"/>
<path d="M5.48474 43.2515C6.1478 43.2515 6.78369 43.5171 7.25254 43.9898C7.72139 44.4624 7.98479 45.1035 7.98479 45.772C7.98479 45.1035 8.24819 44.4624 8.71704 43.9898C9.18589 43.5171 9.82178 43.2515 10.4848 43.2515C9.82545 43.2515 9.19275 42.9889 8.72451 42.5209C8.25627 42.0528 7.9904 41.4172 7.98479 40.7524C7.97918 41.4172 7.71331 42.0528 7.24507 42.5209C6.77682 42.9889 6.14413 43.2515 5.48474 43.2515Z" fill="#666666"/>
<path d="M10.6761 45.7165C11.2061 45.7165 11.7144 45.9287 12.0892 46.3066C12.4639 46.6844 12.6745 47.1968 12.6745 47.7312C12.6739 47.4664 12.7252 47.2042 12.8255 46.9595C12.9257 46.7148 13.0729 46.4925 13.2585 46.3053C13.4442 46.1181 13.6647 45.9697 13.9074 45.8687C14.1501 45.7676 14.4102 45.7159 14.6728 45.7165C14.41 45.7165 14.1498 45.6642 13.9071 45.5627C13.6644 45.4612 13.4439 45.3124 13.2583 45.1249C13.0727 44.9373 12.9256 44.7147 12.8254 44.4698C12.7252 44.2249 12.6739 43.9624 12.6745 43.6975C12.6745 44.2322 12.4641 44.7451 12.0894 45.1236C11.7148 45.5021 11.2065 45.7154 10.6761 45.7165Z" fill="#666666"/>
<path d="M16.3312 46.8738C16.7285 46.8749 17.1092 47.0348 17.3897 47.3185C17.6703 47.6021 17.8278 47.9863 17.8278 48.3869C17.8278 47.9856 17.9859 47.6007 18.2674 47.317C18.5489 47.0332 18.9306 46.8738 19.3287 46.8738C18.9306 46.8738 18.5489 46.7143 18.2674 46.4306C17.9859 46.1468 17.8278 45.7619 17.8278 45.3606C17.8278 45.7612 17.6703 46.1454 17.3897 46.4291C17.1092 46.7127 16.7285 46.8726 16.3312 46.8738Z" fill="#666666"/>
<path d="M22.1093 46.6037C22.3686 46.6037 22.6173 46.7076 22.8007 46.8925C22.9841 47.0774 23.0872 47.3281 23.0872 47.5896C23.0866 47.4603 23.1114 47.3322 23.1601 47.2126C23.2087 47.0931 23.2804 46.9843 23.3708 46.8927C23.4613 46.8011 23.5688 46.7284 23.6872 46.6788C23.8056 46.6292 23.9326 46.6037 24.0608 46.6037C23.9328 46.6043 23.8059 46.5793 23.6876 46.5301C23.5692 46.481 23.4616 46.4087 23.3711 46.3174C23.2806 46.2262 23.2089 46.1177 23.1601 45.9984C23.1114 45.879 23.0866 45.7511 23.0872 45.6221C23.0872 45.7513 23.0618 45.8793 23.0126 45.9987C22.9634 46.1181 22.8913 46.2265 22.8005 46.3177C22.7096 46.4089 22.6018 46.4811 22.4832 46.5302C22.3645 46.5793 22.2375 46.6043 22.1093 46.6037Z" fill="#666666"/>
<path d="M27.6366 44.9662C27.7015 44.9662 27.7658 44.9792 27.8257 45.0045C27.8856 45.0298 27.9399 45.0669 27.9854 45.1136C28.0309 45.1603 28.0667 45.2156 28.0908 45.2764C28.1149 45.3372 28.1267 45.4023 28.1256 45.4677C28.125 45.4032 28.1371 45.3392 28.1612 45.2794C28.1853 45.2196 28.2209 45.1652 28.266 45.1194C28.3111 45.0736 28.3647 45.0372 28.4238 45.0124C28.4829 44.9875 28.5462 44.9748 28.6103 44.9748C28.5462 44.9748 28.4829 44.962 28.4238 44.9372C28.3647 44.9123 28.3111 44.876 28.266 44.8301C28.2209 44.7843 28.1853 44.7299 28.1612 44.6701C28.1371 44.6104 28.125 44.5463 28.1256 44.4818C28.1233 44.6111 28.0708 44.7343 27.9794 44.8249C27.8879 44.9155 27.7648 44.9662 27.6366 44.9662Z" fill="#666666"/>
<path d="M11.5392 5.49109C11.5392 5.82188 11.4745 6.14944 11.3488 6.455C11.2232 6.76056 11.0389 7.03814 10.8067 7.27184C10.5745 7.50555 10.2989 7.69081 9.99559 7.81701C9.6923 7.94321 9.36729 8.00788 9.03918 8.00731C9.70224 8.00731 10.3381 8.27286 10.807 8.74555C11.2758 9.21824 11.5392 9.85934 11.5392 10.5278C11.5392 9.86082 11.8015 9.22102 12.2685 8.74858C12.7355 8.27613 13.3692 8.00958 14.0308 8.00731C13.3696 8.00618 12.7359 7.74057 12.2687 7.26881C11.8016 6.79705 11.5392 6.15769 11.5392 5.49109Z" fill="#666666"/>
<path d="M9.0988 10.7208C9.0988 11.2552 8.88826 11.7676 8.5135 12.1454C8.13874 12.5233 7.63046 12.7355 7.10046 12.7355C7.63011 12.7367 8.13774 12.9493 8.51226 13.3269C8.88678 13.7044 9.09768 14.2162 9.0988 14.7502C9.0988 14.2159 9.30934 13.7034 9.6841 13.3256C10.0589 12.9478 10.5671 12.7355 11.0971 12.7355C10.8346 12.7361 10.5744 12.6844 10.3317 12.5833C10.089 12.4823 9.86852 12.3339 9.68285 12.1467C9.49718 11.9595 9.35 11.7372 9.24977 11.4925C9.14955 11.2478 9.09824 10.9856 9.0988 10.7208Z" fill="#666666"/>
<path d="M7.94656 16.4218C7.94656 16.8231 7.78843 17.2079 7.50696 17.4917C7.22549 17.7755 6.84374 17.9349 6.44568 17.9349C6.843 17.9349 7.22411 18.0937 7.50546 18.3766C7.78681 18.6594 7.94543 19.0432 7.94656 19.4438C7.94768 19.0432 8.10631 18.6594 8.38766 18.3766C8.669 18.0937 9.05011 17.9349 9.44744 17.9349C9.04938 17.9349 8.66762 17.7755 8.38615 17.4917C8.10468 17.2079 7.94656 16.8231 7.94656 16.4218Z" fill="#666666"/>
<path d="M8.21456 22.256C8.21401 22.3858 8.18802 22.5143 8.1381 22.6339C8.08817 22.7536 8.01529 22.8622 7.92363 22.9534C7.83198 23.0446 7.72336 23.1167 7.60401 23.1654C7.48466 23.2142 7.35693 23.2387 7.22815 23.2376C7.48751 23.2376 7.73624 23.3415 7.91964 23.5264C8.10303 23.7113 8.20606 23.962 8.20606 24.2235C8.20606 23.9628 8.3085 23.7127 8.49098 23.5279C8.67345 23.3431 8.9211 23.2387 9.17972 23.2376C8.92331 23.2342 8.67848 23.1295 8.49795 22.9459C8.31743 22.7623 8.21566 22.5145 8.21456 22.256Z" fill="#666666"/>
<path d="M9.83858 27.8198C9.84029 27.8851 9.82901 27.95 9.80542 28.0108C9.78182 28.0716 9.74639 28.127 9.70121 28.1737C9.65603 28.2205 9.60202 28.2576 9.54236 28.283C9.48271 28.3083 9.41862 28.3214 9.35388 28.3214C9.41825 28.3208 9.48209 28.3331 9.54167 28.3577C9.60124 28.3823 9.65537 28.4186 9.70089 28.4645C9.74641 28.5104 9.7824 28.5649 9.80677 28.625C9.83114 28.6851 9.8434 28.7494 9.84284 28.8143C9.84228 28.7498 9.8544 28.6858 9.8785 28.626C9.90261 28.5662 9.93823 28.5118 9.98329 28.466C10.0284 28.4202 10.082 28.3838 10.1411 28.359C10.2001 28.3341 10.2635 28.3214 10.3275 28.3214C10.2624 28.322 10.1979 28.3093 10.1377 28.2842C10.0776 28.2591 10.0231 28.2221 9.97744 28.1753C9.93181 28.1284 9.89599 28.0729 9.87214 28.0118C9.84828 27.9507 9.83687 27.8854 9.83858 27.8198Z" fill="#666666"/>
<path d="M42.8963 49.3557C42.8963 48.6872 43.1597 48.0461 43.6286 47.5734C44.0974 47.1008 44.7333 46.8352 45.3964 46.8352C44.7333 46.8352 44.0974 46.5697 43.6286 46.097C43.1597 45.6243 42.8963 44.9832 42.8963 44.3147C42.8969 44.6455 42.8327 44.9732 42.7075 45.2789C42.5824 45.5847 42.3986 45.8626 42.1668 46.0967C41.935 46.3308 41.6597 46.5165 41.3566 46.6433C41.0535 46.77 40.7286 46.8352 40.4005 46.8352C40.7286 46.8352 41.0535 46.9004 41.3566 47.0272C41.6597 47.1539 41.935 47.3396 42.1668 47.5737C42.3986 47.8078 42.5824 48.0857 42.7075 48.3915C42.8327 48.6973 42.8969 49.0249 42.8963 49.3557Z" fill="#666666"/>
<path d="M45.341 44.126C45.3404 43.861 45.3917 43.5986 45.4919 43.3536C45.5921 43.1087 45.7392 42.8861 45.9248 42.6986C46.1104 42.511 46.3309 42.3623 46.5736 42.2607C46.8163 42.1592 47.0765 42.107 47.3393 42.107C47.0767 42.1075 46.8166 42.0558 46.5739 41.9548C46.3312 41.8537 46.1107 41.7053 45.925 41.5181C45.7394 41.331 45.5922 41.1086 45.492 40.8639C45.3917 40.6193 45.3404 40.357 45.341 40.0923C45.341 40.6266 45.1305 41.1391 44.7557 41.5169C44.3809 41.8947 43.8726 42.107 43.3427 42.107C43.873 42.1081 44.3813 42.3213 44.7559 42.6998C45.1306 43.0783 45.341 43.5912 45.341 44.126Z" fill="#666666"/>
<path d="M46.4932 38.4205C46.4932 38.0203 46.6509 37.6365 46.9315 37.3535C47.2122 37.0706 47.5929 36.9116 47.9898 36.9116C47.7929 36.9116 47.598 36.8724 47.4161 36.7963C47.2342 36.7202 47.0691 36.6087 46.93 36.4681C46.791 36.3276 46.6809 36.1607 46.6059 35.9772C46.5309 35.7936 46.4926 35.5969 46.4932 35.3984C46.4932 35.7998 46.3351 36.1846 46.0536 36.4684C45.7721 36.7522 45.3904 36.9116 44.9923 36.9116C45.3896 36.9116 45.7707 37.0704 46.0521 37.3533C46.3334 37.6361 46.4921 38.0199 46.4932 38.4205Z" fill="#666666"/>
<path d="M46.2255 32.6079C46.2255 32.3472 46.3279 32.0971 46.5104 31.9123C46.6929 31.7275 46.9405 31.6231 47.1991 31.622C47.0713 31.622 46.9447 31.5966 46.8265 31.5473C46.7084 31.498 46.6011 31.4256 46.5106 31.3345C46.4202 31.2433 46.3485 31.1351 46.2996 31.016C46.2507 30.8969 46.2255 30.7693 46.2255 30.6404C46.2255 30.7697 46.2001 30.8976 46.1509 31.017C46.1018 31.1364 46.0297 31.2448 45.9388 31.336C45.8479 31.4272 45.7401 31.4994 45.6215 31.5485C45.5028 31.5976 45.3758 31.6226 45.2476 31.622C45.5069 31.622 45.7557 31.7259 45.939 31.9108C46.1224 32.0957 46.2255 32.3464 46.2255 32.6079Z" fill="#666666"/>
<path d="M44.6012 27.0354C44.5977 26.9065 44.645 26.7814 44.7326 26.6875C44.8202 26.5936 44.9411 26.5383 45.0689 26.5339C44.9399 26.5327 44.8167 26.4803 44.7259 26.388C44.6351 26.2956 44.5842 26.1709 44.5842 26.0409C44.5831 26.1713 44.5312 26.296 44.4397 26.3882C44.3483 26.4804 44.2245 26.5327 44.0952 26.5339C44.1616 26.5315 44.2277 26.5428 44.2896 26.5671C44.3514 26.5913 44.4078 26.6281 44.4551 26.675C44.5024 26.7219 44.5398 26.7781 44.5649 26.84C44.59 26.902 44.6024 26.9685 44.6012 27.0354Z" fill="#666666"/>
<path d="M31.6121 21.1843H38.5637V33.0367L31.6121 21.1843ZM23.6825 24.6865V21.1843H29.8561L23.6825 24.6865ZM30.6894 29.4017L27.2115 31.3907L23.6825 29.4103V25.4366L27.1817 23.4519L30.6809 25.4366V29.4103L30.6894 29.4017ZM23.0362 25.0594V29.0331L19.9494 27.2756L23.0362 22.0159V25.0594ZM23.0362 29.7746L26.5312 31.7507L23.4444 33.4997L20.3534 28.2572L23.0362 29.7746ZM27.2115 32.1408L30.7022 30.1561V33.6583H24.5116L27.2115 32.1408ZM31.3697 29.7789V25.8053L34.4395 27.5628L31.3485 32.8181L31.3697 29.7789ZM31.3697 25.0637L27.8833 23.079L30.9701 21.3258L34.0143 26.5768L31.3697 25.0637ZM37.8409 20.5456H23.9036L27.3773 14.6259L37.8409 20.5456ZM26.4377 14.9431L19.4817 26.7783L15.9995 20.8585L26.4377 14.9431ZM22.7684 33.6583H15.804V21.8144L22.7684 33.6583ZM16.5565 34.297H30.4726L26.9904 40.221L16.5565 34.297ZM34.8945 28.0643L38.3767 33.9883L27.9428 39.8952L34.8945 28.0643Z" fill="#666666"/>
</svg>
